<mxfile host="65bd71144e">
    <diagram id="8jl9XZslusEw9OxVVQOi" name="Page-1">
        <mxGraphModel dx="1123" dy="623" grid="1" gridSize="10" guides="1" tooltips="1" connect="1" arrows="1" fold="1" page="1" pageScale="1" pageWidth="827" pageHeight="1169" math="0" shadow="0">
            <root>
                <mxCell id="0"/>
                <mxCell id="1" parent="0"/>
                <mxCell id="5" style="edgeStyle=none;html=1;entryX=0.5;entryY=0;entryDx=0;entryDy=0;" edge="1" parent="1" source="2" target="56">
                    <mxGeometry relative="1" as="geometry">
                        <mxPoint x="655" y="170" as="targetPoint"/>
                        <Array as="points">
                            <mxPoint x="510" y="120"/>
                            <mxPoint x="624" y="120"/>
                        </Array>
                    </mxGeometry>
                </mxCell>
                <mxCell id="7" value="SI&lt;br&gt;" style="edgeLabel;html=1;align=center;verticalAlign=middle;resizable=0;points=[];" vertex="1" connectable="0" parent="5">
                    <mxGeometry x="-0.5281" y="1" relative="1" as="geometry">
                        <mxPoint as="offset"/>
                    </mxGeometry>
                </mxCell>
                <mxCell id="6" style="edgeStyle=none;html=1;entryX=0.5;entryY=0;entryDx=0;entryDy=0;" edge="1" parent="1" source="2" target="3">
                    <mxGeometry relative="1" as="geometry"/>
                </mxCell>
                <mxCell id="8" value="NO" style="edgeLabel;html=1;align=center;verticalAlign=middle;resizable=0;points=[];" vertex="1" connectable="0" parent="6">
                    <mxGeometry x="-0.2809" relative="1" as="geometry">
                        <mxPoint as="offset"/>
                    </mxGeometry>
                </mxCell>
                <mxCell id="2" value="&lt;div style=&quot;color: rgb(187 , 187 , 187) ; background-color: rgb(38 , 35 , 53) ; font-family: &amp;#34;consolas&amp;#34; , &amp;#34;courier new&amp;#34; , monospace ; line-height: 16px&quot;&gt;&lt;span style=&quot;color: #ff7edb ; font-style: italic&quot;&gt;estaEditando?&lt;/span&gt;&lt;/div&gt;" style="rhombus;whiteSpace=wrap;html=1;" vertex="1" parent="1">
                    <mxGeometry x="235" y="80" width="130" height="80" as="geometry"/>
                </mxCell>
                <mxCell id="49" style="edgeStyle=none;html=1;exitX=0.5;exitY=1;exitDx=0;exitDy=0;entryX=0.5;entryY=0;entryDx=0;entryDy=0;" edge="1" parent="1" source="3" target="46">
                    <mxGeometry relative="1" as="geometry"/>
                </mxCell>
                <mxCell id="3" value="POST(datosEnviar)&lt;br&gt;-No incluiye ID&lt;br&gt;-Link empieza vacio" style="rounded=0;whiteSpace=wrap;html=1;" vertex="1" parent="1">
                    <mxGeometry x="240" y="200" width="120" height="60" as="geometry"/>
                </mxCell>
                <mxCell id="76" style="edgeStyle=none;html=1;entryX=1;entryY=0.5;entryDx=0;entryDy=0;" edge="1" parent="1" source="4" target="25">
                    <mxGeometry relative="1" as="geometry">
                        <Array as="points">
                            <mxPoint x="1040" y="345"/>
                            <mxPoint x="1040" y="1280"/>
                        </Array>
                    </mxGeometry>
                </mxCell>
                <mxCell id="4" value="PUT(dataEnviar)&lt;br&gt;-Incluye el id origen&lt;br&gt;-incluye el link y el nombre de archivo antiguo" style="rounded=0;whiteSpace=wrap;html=1;" vertex="1" parent="1">
                    <mxGeometry x="780" y="310" width="150" height="70" as="geometry"/>
                </mxCell>
                <mxCell id="15" style="edgeStyle=none;html=1;exitX=0.5;exitY=1;exitDx=0;exitDy=0;entryX=0.5;entryY=0;entryDx=0;entryDy=0;" edge="1" parent="1" source="10" target="13">
                    <mxGeometry relative="1" as="geometry">
                        <mxPoint x="300" y="675" as="targetPoint"/>
                    </mxGeometry>
                </mxCell>
                <mxCell id="17" value="SI" style="edgeLabel;html=1;align=center;verticalAlign=middle;resizable=0;points=[];" vertex="1" connectable="0" parent="15">
                    <mxGeometry x="-0.4666" y="-1" relative="1" as="geometry">
                        <mxPoint as="offset"/>
                    </mxGeometry>
                </mxCell>
                <mxCell id="43" value="NO" style="edgeStyle=none;html=1;entryX=0.5;entryY=0;entryDx=0;entryDy=0;" edge="1" parent="1" source="10" target="25">
                    <mxGeometry relative="1" as="geometry">
                        <mxPoint x="570" y="605" as="targetPoint"/>
                        <Array as="points">
                            <mxPoint x="414" y="565"/>
                            <mxPoint x="470" y="565"/>
                            <mxPoint x="470" y="1090"/>
                            <mxPoint x="590" y="1090"/>
                        </Array>
                    </mxGeometry>
                </mxCell>
                <mxCell id="10" value="Tiene archivo adjunto?" style="rhombus;whiteSpace=wrap;html=1;" vertex="1" parent="1">
                    <mxGeometry x="222.5" y="520" width="155" height="90" as="geometry"/>
                </mxCell>
                <mxCell id="54" style="edgeStyle=none;html=1;entryX=0.5;entryY=0;entryDx=0;entryDy=0;" edge="1" parent="1" source="13" target="27">
                    <mxGeometry relative="1" as="geometry"/>
                </mxCell>
                <mxCell id="13" value="Se invoca la funciÃ³n ModCargaArchivo y se le ingresa el archivo y el ID del origen" style="rounded=0;whiteSpace=wrap;html=1;" vertex="1" parent="1">
                    <mxGeometry x="240" y="650" width="120" height="90" as="geometry"/>
                </mxCell>
                <mxCell id="48" style="edgeStyle=none;html=1;exitX=0.5;exitY=1;exitDx=0;exitDy=0;entryX=0.5;entryY=0;entryDx=0;entryDy=0;" edge="1" parent="1" source="18" target="10">
                    <mxGeometry relative="1" as="geometry"/>
                </mxCell>
                <mxCell id="18" value="Se recibe el ID (&lt;span style=&quot;background-color: rgb(38 , 35 , 53) ; color: rgb(187 , 187 , 187) ; font-family: &amp;#34;consolas&amp;#34; , &amp;#34;courier new&amp;#34; , monospace&quot;&gt;&amp;nbsp;&lt;/span&gt;&lt;span style=&quot;font-family: &amp;#34;consolas&amp;#34; , &amp;#34;courier new&amp;#34; , monospace ; color: rgb(255 , 126 , 219)&quot;&gt;response&lt;/span&gt;&lt;span style=&quot;background-color: rgb(38 , 35 , 53) ; color: rgb(187 , 187 , 187) ; font-family: &amp;#34;consolas&amp;#34; , &amp;#34;courier new&amp;#34; , monospace&quot;&gt;.&lt;/span&gt;&lt;span style=&quot;font-family: &amp;#34;consolas&amp;#34; , &amp;#34;courier new&amp;#34; , monospace ; color: rgb(46 , 226 , 250)&quot;&gt;data&lt;/span&gt;&lt;span style=&quot;background-color: rgb(38 , 35 , 53) ; color: rgb(187 , 187 , 187) ; font-family: &amp;#34;consolas&amp;#34; , &amp;#34;courier new&amp;#34; , monospace&quot;&gt;.&lt;/span&gt;&lt;span style=&quot;font-family: &amp;#34;consolas&amp;#34; , &amp;#34;courier new&amp;#34; , monospace ; color: rgb(46 , 226 , 250)&quot;&gt;idorigen&lt;/span&gt;&lt;span&gt;)&lt;/span&gt;" style="rounded=0;whiteSpace=wrap;html=1;" vertex="1" parent="1">
                    <mxGeometry x="215" y="430" width="170" height="60" as="geometry"/>
                </mxCell>
                <mxCell id="55" style="edgeStyle=none;html=1;entryX=0.5;entryY=0;entryDx=0;entryDy=0;" edge="1" parent="1" source="21" target="23">
                    <mxGeometry relative="1" as="geometry"/>
                </mxCell>
                <mxCell id="21" value="ModCargaArchivo retorna el link del archivo" style="rounded=0;whiteSpace=wrap;html=1;" vertex="1" parent="1">
                    <mxGeometry x="240" y="900" width="120" height="60" as="geometry"/>
                </mxCell>
                <mxCell id="34" style="edgeStyle=none;html=1;entryX=0.5;entryY=0;entryDx=0;entryDy=0;" edge="1" parent="1" source="23" target="33">
                    <mxGeometry relative="1" as="geometry"/>
                </mxCell>
                <mxCell id="23" value="PUT(datosEnviar)&lt;br&gt;-Inlcuye el link&lt;br&gt;-incluye el ID del origen" style="rounded=0;whiteSpace=wrap;html=1;" vertex="1" parent="1">
                    <mxGeometry x="240" y="1000" width="120" height="80" as="geometry"/>
                </mxCell>
                <mxCell id="25" value="FIN" style="rounded=1;whiteSpace=wrap;html=1;" vertex="1" parent="1">
                    <mxGeometry x="385" y="1230" width="410" height="100" as="geometry"/>
                </mxCell>
                <mxCell id="26" value="ERROR&lt;br&gt;" style="shape=process;whiteSpace=wrap;html=1;backgroundOutline=1;" vertex="1" parent="1">
                    <mxGeometry x="20" y="1115" width="120" height="60" as="geometry"/>
                </mxCell>
                <mxCell id="31" value="SI" style="edgeStyle=none;html=1;entryX=0.5;entryY=0;entryDx=0;entryDy=0;" edge="1" parent="1" source="27" target="21">
                    <mxGeometry relative="1" as="geometry">
                        <mxPoint x="300" y="940" as="targetPoint"/>
                    </mxGeometry>
                </mxCell>
                <mxCell id="41" value="NO" style="edgeStyle=none;html=1;entryX=1;entryY=0.5;entryDx=0;entryDy=0;" edge="1" parent="1" source="27" target="40">
                    <mxGeometry relative="1" as="geometry"/>
                </mxCell>
                <mxCell id="27" value="Response = 200?" style="rhombus;whiteSpace=wrap;html=1;" vertex="1" parent="1">
                    <mxGeometry x="227.5" y="780" width="145" height="80" as="geometry"/>
                </mxCell>
                <mxCell id="39" value="NO" style="edgeStyle=none;html=1;exitX=0;exitY=0.5;exitDx=0;exitDy=0;entryX=1;entryY=0.5;entryDx=0;entryDy=0;" edge="1" parent="1" source="33" target="26">
                    <mxGeometry relative="1" as="geometry"/>
                </mxCell>
                <mxCell id="45" value="SI" style="edgeStyle=none;html=1;entryX=0.25;entryY=0;entryDx=0;entryDy=0;" edge="1" parent="1" source="33" target="25">
                    <mxGeometry relative="1" as="geometry">
                        <Array as="points">
                            <mxPoint x="300" y="1200"/>
                            <mxPoint x="488" y="1200"/>
                        </Array>
                    </mxGeometry>
                </mxCell>
                <mxCell id="33" value="Response = 200?" style="rhombus;whiteSpace=wrap;html=1;" vertex="1" parent="1">
                    <mxGeometry x="227.5" y="1105" width="145" height="80" as="geometry"/>
                </mxCell>
                <mxCell id="40" value="ERROR&lt;br&gt;" style="shape=process;whiteSpace=wrap;html=1;backgroundOutline=1;" vertex="1" parent="1">
                    <mxGeometry x="20" y="790" width="120" height="60" as="geometry"/>
                </mxCell>
                <mxCell id="47" value="SI" style="edgeStyle=none;html=1;exitX=0.5;exitY=1;exitDx=0;exitDy=0;entryX=0.5;entryY=0;entryDx=0;entryDy=0;" edge="1" parent="1" source="46" target="18">
                    <mxGeometry relative="1" as="geometry"/>
                </mxCell>
                <mxCell id="53" value="NO" style="edgeStyle=none;html=1;" edge="1" parent="1" source="46" target="50">
                    <mxGeometry relative="1" as="geometry"/>
                </mxCell>
                <mxCell id="46" value="Response = 200?" style="rhombus;whiteSpace=wrap;html=1;" vertex="1" parent="1">
                    <mxGeometry x="222.5" y="290" width="155" height="90" as="geometry"/>
                </mxCell>
                <mxCell id="50" value="ERROR&lt;br&gt;" style="shape=process;whiteSpace=wrap;html=1;backgroundOutline=1;" vertex="1" parent="1">
                    <mxGeometry x="20" y="305" width="120" height="60" as="geometry"/>
                </mxCell>
                <mxCell id="63" value="SI" style="edgeStyle=none;html=1;entryX=0.5;entryY=0;entryDx=0;entryDy=0;" edge="1" parent="1" source="56" target="62">
                    <mxGeometry relative="1" as="geometry"/>
                </mxCell>
                <mxCell id="65" value="NO" style="edgeStyle=none;html=1;entryX=0;entryY=0.5;entryDx=0;entryDy=0;" edge="1" parent="1" source="56" target="66">
                    <mxGeometry relative="1" as="geometry">
                        <mxPoint x="770" y="195" as="targetPoint"/>
                    </mxGeometry>
                </mxCell>
                <mxCell id="56" value="Tiene archivo adjunto?" style="rhombus;whiteSpace=wrap;html=1;" vertex="1" parent="1">
                    <mxGeometry x="546" y="150" width="155" height="90" as="geometry"/>
                </mxCell>
                <mxCell id="69" value="SI" style="edgeStyle=none;html=1;" edge="1" parent="1" source="62" target="67">
                    <mxGeometry relative="1" as="geometry"/>
                </mxCell>
                <mxCell id="72" value="NO" style="edgeStyle=none;html=1;" edge="1" parent="1" source="62" target="4">
                    <mxGeometry relative="1" as="geometry"/>
                </mxCell>
                <mxCell id="62" value="Archivo nuevo?&lt;br&gt;&lt;div style=&quot;color: rgb(187 , 187 , 187) ; background-color: rgb(38 , 35 , 53) ; font-family: &amp;#34;consolas&amp;#34; , &amp;#34;courier new&amp;#34; , monospace ; line-height: 16px&quot;&gt;&lt;span style=&quot;color: #ff7edb&quot;&gt;adjunto&lt;/span&gt;.&lt;span style=&quot;color: #2ee2fa&quot;&gt;name?&lt;/span&gt;&lt;/div&gt;" style="rhombus;whiteSpace=wrap;html=1;" vertex="1" parent="1">
                    <mxGeometry x="538" y="290" width="171" height="110" as="geometry"/>
                </mxCell>
                <mxCell id="78" style="edgeStyle=none;html=1;entryX=1;entryY=0.75;entryDx=0;entryDy=0;" edge="1" parent="1" source="66" target="25">
                    <mxGeometry relative="1" as="geometry">
                        <mxPoint x="789.9999999999998" y="1481.9607364430146" as="targetPoint"/>
                        <Array as="points">
                            <mxPoint x="1120" y="195"/>
                            <mxPoint x="1120" y="1305"/>
                        </Array>
                    </mxGeometry>
                </mxCell>
                <mxCell id="66" value="PUT(datosEnviar)&lt;br&gt;-NO inlcuye el link&lt;br&gt;-incluye el ID del origen" style="rounded=0;whiteSpace=wrap;html=1;" vertex="1" parent="1">
                    <mxGeometry x="890" y="155" width="120" height="80" as="geometry"/>
                </mxCell>
                <mxCell id="71" value="" style="edgeStyle=none;html=1;" edge="1" parent="1" source="67" target="70">
                    <mxGeometry relative="1" as="geometry"/>
                </mxCell>
                <mxCell id="67" value="&#10;&#10;&lt;div style=&quot;color: rgb(187, 187, 187); background-color: rgb(38, 35, 53); font-family: consolas, &amp;quot;courier new&amp;quot;, monospace; font-weight: normal; font-size: 12px; line-height: 16px;&quot;&gt;&lt;div&gt;&lt;span style=&quot;color: #36f9f6&quot;&gt;ModCargaArchivo&lt;/span&gt;&lt;/div&gt;&lt;/div&gt;&#10;&#10;" style="rounded=0;whiteSpace=wrap;html=1;" vertex="1" parent="1">
                    <mxGeometry x="563.5" y="460" width="120" height="60" as="geometry"/>
                </mxCell>
                <mxCell id="74" value="" style="edgeStyle=none;html=1;" edge="1" parent="1" source="70" target="73">
                    <mxGeometry relative="1" as="geometry"/>
                </mxCell>
                <mxCell id="70" value="Retorna el link del archivo nuevo" style="rounded=0;whiteSpace=wrap;html=1;" vertex="1" parent="1">
                    <mxGeometry x="563.5" y="570" width="120" height="60" as="geometry"/>
                </mxCell>
                <mxCell id="75" style="edgeStyle=none;html=1;entryX=0.58;entryY=-0.043;entryDx=0;entryDy=0;entryPerimeter=0;" edge="1" parent="1" source="73" target="25">
                    <mxGeometry relative="1" as="geometry"/>
                </mxCell>
                <mxCell id="73" value="PUT(dataEnviar)&lt;br&gt;-Incluye el id origen&lt;br&gt;-incluye el link y el nombre de archivo Nuevo" style="rounded=0;whiteSpace=wrap;html=1;" vertex="1" parent="1">
                    <mxGeometry x="546" y="690" width="150" height="70" as="geometry"/>
                </mxCell>
            </root>
        </mxGraphModel>
    </diagram>
</mxfile>